<svg xmlns="http://www.w3.org/2000/svg" viewBox="0 0 32 32">
  <!-- Background circle -->
  <circle cx="16" cy="16" r="15" fill="#E8354A"/>
  <!-- Simple doll face -->
  <!-- Head -->
  <circle cx="16" cy="13" r="7" fill="#F5D0B0"/>
  <!-- Hair -->
  <path d="M9 13 Q9 6 16 6 Q23 6 23 13 Q21 9 16 9 Q11 9 9 13Z" fill="#2A1B0A"/>
  <!-- Hair sides -->
  <rect x="9" y="11" width="2.5" height="8" rx="1.25" fill="#2A1B0A"/>
  <rect x="20.5" y="11" width="2.5" height="8" rx="1.25" fill="#2A1B0A"/>
  <!-- Eyes -->
  <circle cx="13.5" cy="13" r="1.3" fill="#2A1B0A"/>
  <circle cx="18.5" cy="13" r="1.3" fill="#2A1B0A"/>
  <!-- Eye shine -->
  <circle cx="14" cy="12.5" r="0.4" fill="#fff"/>
  <circle cx="19" cy="12.5" r="0.4" fill="#fff"/>
  <!-- Mouth -->
  <path d="M14.5 15.5 Q16 17 17.5 15.5" stroke="#C0695A" stroke-width="0.6" fill="none" stroke-linecap="round"/>
  <!-- Dress body -->
  <path d="M12 20 L11 27 Q16 29 21 27 L20 20 Q16 21 12 20Z" fill="#FFB5C8"/>
</svg>
