<svg xmlns="http://www.w3.org/2000/svg" viewBox="0 0 142.6 99.0" width="142.6" height="99.0" style="shape-rendering:geometricPrecision">
<g transform="translate(-856.5,-745.5)"><path style="opacity:1" fill="#27201c" d="M 887.5,745.5 C 889.441,745.869 891.275,746.536 893,747.5C 894.25,752.42 894.75,757.42 894.5,762.5C 899.468,761.836 904.468,761.336 909.5,761C 912.49,756.003 916.657,752.503 922,750.5C 925.603,751.328 927.603,753.661 928,757.5C 928.333,762.5 928.667,767.5 929,772.5C 947.948,765.569 964.615,769.236 979,783.5C 981.194,786.554 982.861,789.888 984,793.5C 997.447,804.957 999.113,817.957 989,832.5C 981.976,838.374 973.976,840.04 965,837.5C 958.317,839.698 951.484,840.531 944.5,840C 942.413,839.208 940.579,838.041 939,836.5C 933.051,838.405 927.218,840.572 921.5,843C 918.567,843.893 915.567,844.393 912.5,844.5C 905.282,842.697 897.948,841.53 890.5,841C 886.844,838.41 882.844,836.41 878.5,835C 870.014,827.728 868.014,819.062 872.5,809C 871.964,806.76 870.797,804.927 869,803.5C 866.242,805.073 863.408,805.407 860.5,804.5C 862.118,802.684 864.118,801.351 866.5,800.5C 867.386,799.675 867.719,798.675 867.5,797.5C 863.821,797.724 860.154,798.058 856.5,798.5C 856.5,797.5 856.5,796.5 856.5,795.5C 859.877,795.041 863.211,794.374 866.5,793.5C 867.006,777.145 872.173,762.478 882,749.5C 883.812,748.023 885.645,746.69 887.5,745.5 Z"/>
<path style="opacity:1" fill="#f7e6da" d="M 924.5,757.5 C 925.466,759.792 926.133,762.292 926.5,765C 924.871,768.632 925.205,771.965 927.5,775C 933.164,772.926 939.164,771.759 945.5,771.5C 958.051,771.695 968.551,776.361 977,785.5C 979.434,788.795 981.101,792.462 982,796.5C 994.848,805.416 996.848,816.416 988,829.5C 981.295,835.893 973.629,837.559 965,834.5C 958.696,837.3 952.196,837.967 945.5,836.5C 946.487,832.633 945.987,832.633 944,836.5C 943.641,833.456 942.974,833.122 942,835.5C 940.812,834.437 940.312,833.103 940.5,831.5C 937.753,835.032 934.086,836.532 929.5,836C 931.332,834.511 932.165,832.678 932,830.5C 926.037,840.283 917.537,843.617 906.5,840.5C 906.826,837.393 905.659,835.06 903,833.5C 902.997,830.251 901.83,827.584 899.5,825.5C 903.149,824.733 906.482,823.4 909.5,821.5C 904.518,822.826 899.518,824.159 894.5,825.5C 890.572,823.242 887.238,820.242 884.5,816.5C 884.167,816.667 883.833,816.833 883.5,817C 884.665,818.992 885.998,820.825 887.5,822.5C 887.489,824.017 886.823,825.184 885.5,826C 882.767,826.904 880.433,828.404 878.5,830.5C 871.496,823.792 870.829,816.459 876.5,808.5C 875.289,807.28 875.289,806.113 876.5,805C 873.057,804.596 871.724,802.929 872.5,800C 870.777,799.225 869.777,797.892 869.5,796C 868.786,778.152 874.452,762.485 886.5,749C 888.433,748.217 889.933,748.717 891,750.5C 892.017,755.235 892.184,759.902 891.5,764.5C 897.842,764.666 904.175,764.5 910.5,764C 913.667,759.5 917.5,755.667 922,752.5C 923.883,753.653 924.716,755.319 924.5,757.5 Z"/>
<path style="opacity:1" fill="#4a3a32" d="M 975.5,788.5 C 974.203,785.397 974.536,785.063 976.5,787.5C 976.376,788.107 976.043,788.44 975.5,788.5 Z"/>
<path style="opacity:1" fill="#2c2319" d="M 888.5,786.5 C 891.757,786.174 893.257,787.507 893,790.5C 890.882,789.717 889.382,788.384 888.5,786.5 Z"/>
<path style="opacity:1" fill="#2e241c" d="M 909.5,790.5 C 909.5,790.167 909.5,789.833 909.5,789.5C 910.815,788.524 912.148,787.524 913.5,786.5C 914.353,789.48 913.019,790.813 909.5,790.5 Z"/>
<path style="opacity:1" fill="#52453c" d="M 927.5,805.5 C 929.736,801.119 930.736,796.452 930.5,791.5C 924.807,791.701 919.14,791.868 913.5,792C 919.117,790.948 924.784,790.282 930.5,790C 928.586,785.696 928.086,781.196 929,776.5C 929.62,780.888 930.453,785.222 931.5,789.5C 938.041,790.796 938.041,791.462 931.5,791.5C 931.5,793.167 931.5,794.833 931.5,796.5C 934.311,796.826 936.978,797.659 939.5,799C 937.069,799.252 934.735,798.752 932.5,797.5C 931.193,800.469 929.527,803.135 927.5,805.5 Z"/>
<path style="opacity:1" fill="#403224" d="M 975.5,788.5 C 976.091,789.151 976.757,789.818 977.5,790.5C 976.176,791.687 975.176,791.354 974.5,789.5C 974.624,788.893 974.957,788.56 975.5,788.5 Z"/>
<path style="opacity:1" fill="#574437" d="M 959.5,793.5 C 960.172,792.733 961.005,792.066 962,791.5C 962.188,793.061 961.355,793.728 959.5,793.5 Z"/>
<path style="opacity:1" fill="#58483c" d="M 959.5,793.5 C 959.027,794.906 958.027,795.573 956.5,795.5C 956.973,794.094 957.973,793.427 959.5,793.5 Z"/>
<path style="opacity:1" fill="#7f7065" d="M 879.5,796.5 C 880.873,796.343 882.207,796.51 883.5,797C 880.23,798.321 876.897,798.987 873.5,799C 875.611,798.155 877.611,797.322 879.5,796.5 Z"/>
<path style="opacity:1" fill="#aba09b" d="M 909.5,789.5 C 909.5,789.833 909.5,790.167 909.5,790.5C 910.058,791.79 911.058,792.623 912.5,793C 911.833,793.333 911.167,793.667 910.5,794C 914.5,794.333 918.5,794.667 922.5,795C 919.183,795.498 915.85,795.665 912.5,795.5C 911.528,801.518 907.861,804.518 901.5,804.5C 898.209,804.721 895.709,803.387 894,800.5C 893.378,798.269 892.211,796.435 890.5,795C 891.5,794.667 892.5,794.333 893.5,794C 869.5,793.333 869.5,792.667 893.5,792C 895.874,789.961 897.874,787.628 899.5,785C 901.365,783.699 903.365,783.365 905.5,784C 906.977,785.812 908.31,787.645 909.5,789.5 Z"/>
<path style="opacity:1" fill="#29231e" d="M 897.5,794.5 C 900.524,794.373 903.524,794.873 906.5,796C 905,796.167 903.5,796.333 902,796.5C 900.014,796.431 898.514,795.765 897.5,794.5 Z"/>
<path style="opacity:1" fill="#bcb0aa" d="M 961.5,796.5 C 969.852,796.109 971.852,799.776 967.5,807.5C 965.754,808.395 963.92,809.062 962,809.5C 959.68,807.354 957.18,805.354 954.5,803.5C 955.883,800.116 958.217,797.783 961.5,796.5 Z"/>
<path style="opacity:1" fill="#4e4032" d="M 927.5,805.5 C 927.174,808.001 925.841,809.168 923.5,809C 924.705,807.624 926.038,806.458 927.5,805.5 Z"/>
<path style="opacity:1" fill="#423127" d="M 948.5,808.5 C 949.267,809.172 949.934,810.005 950.5,811C 948.939,811.188 948.272,810.355 948.5,808.5 Z"/>
<path style="opacity:1" fill="#bdac9f" d="M 912.5,819.5 C 915.015,816.515 914.348,815.348 910.5,816C 912.439,814.283 913.773,812.783 914.5,811.5C 916.122,813.854 917.622,813.854 919,811.5C 919.617,812.449 919.451,813.282 918.5,814C 914.148,814.419 913.815,815.086 917.5,816C 916.211,817.802 914.544,818.969 912.5,819.5 Z"/>
<path style="opacity:1" fill="#938477" d="M 887.5,814.5 C 883.913,814.805 880.913,813.638 878.5,811C 881.701,811.599 884.701,812.765 887.5,814.5 Z"/>
<path style="opacity:1" fill="#44362b" d="M 956.5,795.5 C 950.081,801.175 946.747,808.342 946.5,817C 947.205,820.804 947.538,824.637 947.5,828.5C 946.167,828.5 944.833,828.5 943.5,828.5C 944.429,827.685 945.429,826.852 946.5,826C 943.135,814.321 945.802,804.321 954.5,796C 955.094,795.536 955.761,795.369 956.5,795.5 Z"/>
<path style="opacity:1" fill="#95847a" d="M 887.5,814.5 C 893.511,814.977 899.511,815.644 905.5,816.5C 899.189,817.777 893.189,817.11 887.5,814.5 Z"/>
<path style="opacity:1" fill="#2a201b" d="M 982.5,808.5 C 983.822,808.33 984.989,808.663 986,809.5C 988.866,819.109 985.699,826.109 976.5,830.5C 976.167,830 975.833,829.5 975.5,829C 979.728,822.815 982.062,815.982 982.5,808.5 Z"/>
<path style="opacity:1" fill="#45372f" d="M 912.5,819.5 C 912.027,820.906 911.027,821.573 909.5,821.5C 909.973,820.094 910.973,819.427 912.5,819.5 Z"/>
<path style="opacity:1" fill="#44372e" d="M 909.5,821.5 C 906.482,823.4 903.149,824.733 899.5,825.5C 895.566,826.217 892.066,827.883 889,830.5C 888.691,828.609 889.525,827.275 891.5,826.5C 890.479,824.812 889.145,823.479 887.5,822.5C 885.998,820.825 884.665,818.992 883.5,817C 883.833,816.833 884.167,816.667 884.5,816.5C 887.238,820.242 890.572,823.242 894.5,825.5C 899.518,824.159 904.518,822.826 909.5,821.5 Z"/>
<path style="opacity:1" fill="#68574b" d="M 961.5,823.5 C 963.765,824.94 963.932,826.607 962,828.5C 960.372,827.038 960.205,825.372 961.5,823.5 Z"/>
<path style="opacity:1" fill="#4b3a2e" d="M 943.5,828.5 C 942.833,829.833 941.833,830.833 940.5,831.5C 940.5,829.5 941.5,828.5 943.5,828.5 Z"/>
<path style="opacity:1" fill="#b0a6a2" d="M 887.5,822.5 C 889.145,823.479 890.479,824.812 891.5,826.5C 889.525,827.275 888.691,828.609 889,830.5C 892.066,827.883 895.566,826.217 899.5,825.5C 901.83,827.584 902.997,830.251 903,833.5C 905.659,835.06 906.826,837.393 906.5,840.5C 903.797,840.045 901.13,839.378 898.5,838.5C 896.128,839.668 893.795,839.502 891.5,838C 892.673,834.89 892.173,834.723 890,837.5C 889.383,836.551 889.549,835.718 890.5,835C 889.551,834.383 888.718,834.549 888,835.5C 887.431,831.639 886.598,831.639 885.5,835.5C 882.57,834.547 880.237,832.88 878.5,830.5C 880.433,828.404 882.767,826.904 885.5,826C 886.823,825.184 887.489,824.017 887.5,822.5 Z"/>
<path style="opacity:1" fill="#534539" d="M 920.5,834.5 C 921.397,835.598 922.23,835.598 923,834.5C 923.783,836.319 923.283,837.652 921.5,838.5C 921.891,837.282 921.224,836.448 919.5,836C 920.056,835.617 920.389,835.117 920.5,834.5 Z"/>
</g>
</svg>