<svg xmlns="http://www.w3.org/2000/svg" viewBox="0 0 128.3 85.2" width="128.3" height="85.2" style="shape-rendering:geometricPrecision">
<g transform="translate(-532.2,-583.5)"><path style="opacity:1" fill="#5b4943" d="M 652.5,650.5 C 651.833,649.5 651.167,648.5 650.5,647.5C 651.822,647.67 652.989,647.337 654,646.5C 657.697,642.693 658.364,638.36 656,633.5C 654.961,632.29 653.794,631.29 652.5,630.5C 650.706,628.203 648.706,626.037 646.5,624C 640.553,620.706 635.22,616.706 630.5,612C 599.876,600.206 571.71,604.372 546,624.5C 542.802,627.563 540.636,631.229 539.5,635.5C 537.189,639.306 535.523,643.472 534.5,648C 534.57,648.765 534.903,649.265 535.5,649.5C 534.766,650.708 534.433,652.041 534.5,653.5C 532.719,650.817 532.219,647.817 533,644.5C 536.371,631.811 543.537,621.977 554.5,615C 550.167,608 545.833,601 541.5,594C 547.977,590.26 554.644,586.76 561.5,583.5C 565.007,590.514 567.841,597.847 570,605.5C 570.388,606.428 571.055,607.095 572,607.5C 580.721,604.397 589.721,603.064 599,603.5C 606.704,603.107 614.204,604.107 621.5,606.5C 624.231,599.357 626.397,592.024 628,584.5C 628.414,584.043 628.914,583.709 629.5,583.5C 636.722,586.611 644.056,589.444 651.5,592C 647.04,599.753 642.706,607.586 638.5,615.5C 646.077,620.24 652.577,626.24 658,633.5C 660.475,640.574 658.642,646.241 652.5,650.5 Z"/>
<path style="opacity:1" fill="#f8f7f6" d="M 629.5,587.5 C 635.806,588.82 641.806,590.987 647.5,594C 643.876,600.751 639.876,607.251 635.5,613.5C 632.163,610.829 628.496,608.663 624.5,607C 626.556,600.61 628.223,594.11 629.5,587.5 Z"/>
<path style="opacity:1" fill="#f8f7f6" d="M 558.5,587.5 C 559.5,587.5 560.5,587.5 561.5,587.5C 563.136,594.576 565.47,601.409 568.5,608C 564.912,609.923 561.246,611.756 557.5,613.5C 552.943,607.76 548.943,601.594 545.5,595C 549.896,592.473 554.229,589.973 558.5,587.5 Z"/>
<path style="opacity:1" fill="#be5841" d="M 652.5,630.5 C 653.481,632.489 654.481,634.489 655.5,636.5C 655.502,639.159 654.169,640.493 651.5,640.5C 646.033,639.612 642.366,636.612 640.5,631.5C 639.833,632.833 639.167,634.167 638.5,635.5C 632.02,634.503 627.853,630.837 626,624.5C 624.981,623.313 623.814,622.313 622.5,621.5C 620.47,623.897 618.803,626.563 617.5,629.5C 613.502,630.947 610.169,629.947 607.5,626.5C 606.578,623.316 605.578,620.149 604.5,617C 603.629,615.231 602.296,614.564 600.5,615C 605.931,628.23 601.598,633.896 587.5,632C 585.127,628.866 583.127,625.532 581.5,622C 581.167,621.833 580.833,621.667 580.5,621.5C 579.833,623.5 579.167,625.5 578.5,627.5C 577.914,627.291 577.414,626.957 577,626.5C 576.667,623.167 576.333,619.833 576,616.5C 573.263,615.532 571.263,616.532 570,619.5C 568.658,624.265 566.825,628.765 564.5,633C 561.243,634.043 557.91,634.543 554.5,634.5C 554.071,631.637 553.071,628.971 551.5,626.5C 548.318,630.881 545.152,635.215 542,639.5C 540.519,638.529 539.685,637.196 539.5,635.5C 540.636,631.229 542.802,627.563 546,624.5C 571.71,604.372 599.876,600.206 630.5,612C 635.22,616.706 640.553,620.706 646.5,624C 648.706,626.037 650.706,628.203 652.5,630.5 Z"/>
<path style="opacity:1" fill="#ac4532" d="M 652.5,630.5 C 653.794,631.29 654.961,632.29 656,633.5C 658.364,638.36 657.697,642.693 654,646.5C 652.989,647.337 651.822,647.67 650.5,647.5C 640.389,642.74 629.723,639.74 618.5,638.5C 618.082,637.778 617.416,637.278 616.5,637C 601.833,636.333 587.167,636.333 572.5,637C 572.833,637.333 573.167,637.667 573.5,638C 566.612,638.063 559.945,639.23 553.5,641.5C 551.456,642.065 549.79,643.065 548.5,644.5C 544.25,646.362 539.917,648.028 535.5,649.5C 534.903,649.265 534.57,648.765 534.5,648C 535.523,643.472 537.189,639.306 539.5,635.5C 539.685,637.196 540.519,638.529 542,639.5C 545.152,635.215 548.318,630.881 551.5,626.5C 553.071,628.971 554.071,631.637 554.5,634.5C 557.91,634.543 561.243,634.043 564.5,633C 566.825,628.765 568.658,624.265 570,619.5C 571.263,616.532 573.263,615.532 576,616.5C 576.333,619.833 576.667,623.167 577,626.5C 577.414,626.957 577.914,627.291 578.5,627.5C 579.167,625.5 579.833,623.5 580.5,621.5C 580.833,621.667 581.167,621.833 581.5,622C 583.127,625.532 585.127,628.866 587.5,632C 601.598,633.896 605.931,628.23 600.5,615C 602.296,614.564 603.629,615.231 604.5,617C 605.578,620.149 606.578,623.316 607.5,626.5C 610.169,629.947 613.502,630.947 617.5,629.5C 618.803,626.563 620.47,623.897 622.5,621.5C 623.814,622.313 624.981,623.313 626,624.5C 627.853,630.837 632.02,634.503 638.5,635.5C 639.167,634.167 639.833,632.833 640.5,631.5C 642.366,636.612 646.033,639.612 651.5,640.5C 654.169,640.493 655.502,639.159 655.5,636.5C 654.481,634.489 653.481,632.489 652.5,630.5 Z"/>
<path style="opacity:1" fill="#97493a" d="M 618.5,638.5 C 594.787,636.482 571.454,638.482 548.5,644.5C 549.79,643.065 551.456,642.065 553.5,641.5C 559.945,639.23 566.612,638.063 573.5,638C 573.167,637.667 572.833,637.333 572.5,637C 587.167,636.333 601.833,636.333 616.5,637C 617.416,637.278 618.082,637.778 618.5,638.5 Z"/>
<path style="opacity:1" fill="#be5841" d="M 647.5,655.5 C 647.511,659.352 645.511,661.185 641.5,661C 608.108,666.614 574.775,666.781 541.5,661.5C 541.5,660.167 541.5,658.833 541.5,657.5C 547.324,654.058 553.658,651.891 560.5,651C 585.508,646.334 610.508,646.334 635.5,651C 639.645,652.214 643.645,653.714 647.5,655.5 Z"/>
<path style="opacity:1" fill="#42140c" d="M 618.5,638.5 C 629.723,639.74 640.389,642.74 650.5,647.5C 651.167,648.5 651.833,649.5 652.5,650.5C 651.248,652.001 650.248,653.668 649.5,655.5C 648.833,655.5 648.167,655.5 647.5,655.5C 643.645,653.714 639.645,652.214 635.5,651C 610.508,646.334 585.508,646.334 560.5,651C 553.658,651.891 547.324,654.058 541.5,657.5C 540.833,657.5 540.167,657.5 539.5,657.5C 537.251,656.92 535.585,655.587 534.5,653.5C 534.433,652.041 534.766,650.708 535.5,649.5C 539.917,648.028 544.25,646.362 548.5,644.5C 571.454,638.482 594.787,636.482 618.5,638.5 Z"/>
<path style="opacity:1" fill="#a14836" d="M 584.5,639.5 C 599.238,639.176 613.905,640.009 628.5,642C 635.028,643.398 641.361,645.398 647.5,648C 649.848,649.688 650.015,651.522 648,653.5C 633.171,648.237 617.838,645.571 602,645.5C 583.614,645.929 565.447,648.095 547.5,652C 544.88,652.981 542.38,654.147 540,655.5C 537.749,654.937 536.749,653.603 537,651.5C 552.234,644.758 568.068,640.758 584.5,639.5 Z"/>
<path style="opacity:1" fill="#5f483f" d="M 647.5,655.5 C 648.167,655.5 648.833,655.5 649.5,655.5C 650.546,659.993 648.546,662.493 643.5,663C 616.288,667.384 588.954,668.717 561.5,667C 554.474,665.827 547.474,664.494 540.5,663C 539.594,661.301 539.261,659.467 539.5,657.5C 540.167,657.5 540.833,657.5 541.5,657.5C 541.5,658.833 541.5,660.167 541.5,661.5C 574.775,666.781 608.108,666.614 641.5,661C 645.511,661.185 647.511,659.352 647.5,655.5 Z"/>
</g>
</svg>