<svg xmlns="http://www.w3.org/2000/svg" viewBox="0 0 151.4 95.6" width="151.4" height="95.6" style="shape-rendering:geometricPrecision">
<g transform="translate(-691.6,-592.5)"><path style="opacity:1" fill="#564d48" d="M 737.5,623.5 C 736.71,624.401 735.71,625.068 734.5,625.5C 732.175,616.024 729.342,606.691 726,597.5C 720.128,599.852 714.628,602.852 709.5,606.5C 714.553,614.535 719.553,622.535 724.5,630.5C 724.167,631.5 723.5,632.167 722.5,632.5C 717.105,623.388 711.438,614.388 705.5,605.5C 712.543,600.478 720.21,596.811 728.5,594.5C 731.303,604.242 734.303,613.909 737.5,623.5 Z"/>
<path style="opacity:1" fill="#f7f7f6" d="M 807.5,629.5 C 803.927,627.216 800.26,625.216 796.5,623.5C 798.055,614.278 800.389,605.278 803.5,596.5C 809.379,599.606 815.379,602.44 821.5,605C 816.43,612.977 811.764,621.144 807.5,629.5 Z"/>
<path style="opacity:1" fill="#f8f7f6" d="M 734.5,625.5 C 730.856,626.655 727.523,628.322 724.5,630.5C 719.553,622.535 714.553,614.535 709.5,606.5C 714.628,602.852 720.128,599.852 726,597.5C 729.342,606.691 732.175,616.024 734.5,625.5 Z"/>
<path style="opacity:1" fill="#544b46" d="M 809.5,631.5 C 808.5,631.167 807.833,630.5 807.5,629.5C 811.764,621.144 816.43,612.977 821.5,605C 815.379,602.44 809.379,599.606 803.5,596.5C 800.389,605.278 798.055,614.278 796.5,623.5C 795.508,623.672 794.842,623.338 794.5,622.5C 795.889,612.277 798.222,602.277 801.5,592.5C 808.712,596.273 816.045,599.773 823.5,603C 823.957,603.414 824.291,603.914 824.5,604.5C 819.043,613.279 814.043,622.279 809.5,631.5 Z"/>
<path style="opacity:1" fill="#ee96a8" d="M 812.5,640.5 C 811.178,640.33 810.011,640.663 809,641.5C 804.193,635.745 800.693,636.412 798.5,643.5C 797.167,643.5 795.833,643.5 794.5,643.5C 776.51,640.984 758.51,641.151 740.5,644C 732.537,645.267 724.87,647.434 717.5,650.5C 718.855,639.249 725.188,631.416 736.5,627C 754.957,620.525 773.624,619.858 792.5,625C 801.348,627.564 808.014,632.731 812.5,640.5 Z"/>
<path style="opacity:1" fill="#2c1b1b" d="M 794.5,622.5 C 794.842,623.338 795.508,623.672 796.5,623.5C 800.26,625.216 803.927,627.216 807.5,629.5C 807.833,630.5 808.5,631.167 809.5,631.5C 812.231,633.946 814.231,636.946 815.5,640.5C 814.5,640.5 813.5,640.5 812.5,640.5C 808.014,632.731 801.348,627.564 792.5,625C 773.624,619.858 754.957,620.525 736.5,627C 725.188,631.416 718.855,639.249 717.5,650.5C 717.5,651.167 717.5,651.833 717.5,652.5C 710.16,656.267 703.326,660.933 697,666.5C 693.773,669.686 693.94,672.52 697.5,675C 702.884,677.764 708.551,679.764 714.5,681C 744.742,685.976 775.076,686.643 805.5,683C 817.769,681.58 828.936,677.413 839,670.5C 838.912,667.358 837.412,664.858 834.5,663C 830.423,660.295 826.09,658.128 821.5,656.5C 820.766,655.292 820.433,653.959 820.5,652.5C 828.235,655.449 835.068,659.782 841,665.5C 843.012,670.325 841.512,673.825 836.5,676C 822.87,682.324 808.537,685.991 793.5,687C 769.775,688.089 746.108,687.422 722.5,685C 712.982,684.038 703.982,681.371 695.5,677C 691.765,673.116 691.598,668.949 695,664.5C 700.637,659.016 707.137,655.016 714.5,652.5C 714.406,644.693 717.073,638.026 722.5,632.5C 723.5,632.167 724.167,631.5 724.5,630.5C 727.523,628.322 730.856,626.655 734.5,625.5C 735.71,625.068 736.71,624.401 737.5,623.5C 756.416,617.471 775.416,617.138 794.5,622.5 Z"/>
<path style="opacity:1" fill="#f096a8" d="M 791.5,645.5 C 790.536,649.793 791.869,652.96 795.5,655C 791.716,662.721 794.049,665.554 802.5,663.5C 804.3,666.454 806.633,667.121 809.5,665.5C 812.297,665.033 813.631,663.367 813.5,660.5C 817.019,660.741 819.685,659.407 821.5,656.5C 826.09,658.128 830.423,660.295 834.5,663C 837.412,664.858 838.912,667.358 839,670.5C 828.936,677.413 817.769,681.58 805.5,683C 775.076,686.643 744.742,685.976 714.5,681C 708.551,679.764 702.884,677.764 697.5,675C 693.94,672.52 693.773,669.686 697,666.5C 703.326,660.933 710.16,656.267 717.5,652.5C 741.666,645.208 766.333,642.875 791.5,645.5 Z"/>
<path style="opacity:1" fill="#381719" d="M 794.5,643.5 C 793.71,644.401 792.71,645.068 791.5,645.5C 766.333,642.875 741.666,645.208 717.5,652.5C 717.5,651.833 717.5,651.167 717.5,650.5C 724.87,647.434 732.537,645.267 740.5,644C 758.51,641.151 776.51,640.984 794.5,643.5 Z"/>
<path style="opacity:1" fill="#9b846d" d="M 812.5,640.5 C 813.5,640.5 814.5,640.5 815.5,640.5C 816.949,642.611 817.949,644.944 818.5,647.5C 816.018,649.051 816.352,650.384 819.5,651.5C 819.5,652.167 819.833,652.5 820.5,652.5C 820.433,653.959 820.766,655.292 821.5,656.5C 819.685,659.407 817.019,660.741 813.5,660.5C 813.631,663.367 812.297,665.033 809.5,665.5C 806.633,667.121 804.3,666.454 802.5,663.5C 794.049,665.554 791.716,662.721 795.5,655C 791.869,652.96 790.536,649.793 791.5,645.5C 792.71,645.068 793.71,644.401 794.5,643.5C 795.833,643.5 797.167,643.5 798.5,643.5C 800.693,636.412 804.193,635.745 809,641.5C 810.011,640.663 811.178,640.33 812.5,640.5 Z"/>
<path style="opacity:1" fill="#eee6b2" d="M 794.5,645.5 C 797.585,645.542 799.919,646.875 801.5,649.5C 799.927,652.193 797.593,653.026 794.5,652C 791.939,649.844 791.939,647.677 794.5,645.5 Z"/>
<path style="opacity:1" fill="#f0e8b1" d="M 809.5,649.5 C 808.833,649.167 808.167,648.833 807.5,648.5C 808.045,646.407 808.878,644.407 810,642.5C 814.186,641.35 815.852,643.017 815,647.5C 813.556,649.155 811.722,649.822 809.5,649.5 Z"/>
<path style="opacity:1" fill="#f0e9b1" d="M 802.5,639.5 C 805.114,639.277 806.781,640.444 807.5,643C 806.62,644.356 806.286,645.856 806.5,647.5C 800.429,647.092 799.095,644.425 802.5,639.5 Z"/>
<path style="opacity:1" fill="#281816" d="M 818.5,647.5 C 818.833,648.833 819.167,650.167 819.5,651.5C 816.352,650.384 816.018,649.051 818.5,647.5 Z"/>
<path style="opacity:1" fill="#f2ebb3" d="M 813.5,651.5 C 818.022,651.837 819.355,654.003 817.5,658C 814.053,659.109 811.386,658.109 809.5,655C 810.591,653.45 811.924,652.283 813.5,651.5 Z"/>
<path style="opacity:1" fill="#ad767f" d="M 807.5,648.5 C 808.167,648.833 808.833,649.167 809.5,649.5C 809.326,651.861 808.993,654.194 808.5,656.5C 808.167,656.5 807.833,656.5 807.5,656.5C 801.803,656.434 800.137,653.768 802.5,648.5C 804.167,648.5 805.833,648.5 807.5,648.5 Z"/>
<path style="opacity:1" fill="#d66096" d="M 803.5,649.5 C 804.833,649.5 806.167,649.5 807.5,649.5C 807.5,651.5 807.5,653.5 807.5,655.5C 803.932,655.241 802.599,653.241 803.5,649.5 Z"/>
<path style="opacity:1" fill="#f1e8b3" d="M 797.5,655.5 C 802.747,655.64 803.747,657.806 800.5,662C 794.104,662.126 793.104,659.96 797.5,655.5 Z"/>
<path style="opacity:1" fill="#f1eab1" d="M 807.5,656.5 C 807.833,656.5 808.167,656.5 808.5,656.5C 811.685,659.323 812.019,662.323 809.5,665.5C 805.006,664.841 803.339,662.175 804.5,657.5C 805.791,657.737 806.791,657.404 807.5,656.5 Z"/>
</g>
</svg>