<svg xmlns="http://www.w3.org/2000/svg" viewBox="0 0 120.5 104.2" width="120.5" height="104.2" style="shape-rendering:geometricPrecision">
<g transform="translate(-699.7,-724.5)"><path style="opacity:1" fill="#281f1d" d="M 804.5,758.5 C 803.833,758.167 803.167,757.833 802.5,757.5C 805.72,750.729 809.22,744.063 813,737.5C 813.749,736.365 813.583,735.365 812.5,734.5C 807.374,731.756 802.041,729.922 796.5,729C 794.273,735.737 792.273,742.57 790.5,749.5C 790.942,750.739 791.609,751.739 792.5,752.5C 791.561,752.626 790.561,752.96 789.5,753.5C 787.249,752.305 784.915,751.305 782.5,750.5C 767.16,745.217 751.827,745.217 736.5,750.5C 730.385,752.723 724.719,755.723 719.5,759.5C 718.5,759.5 717.5,759.5 716.5,759.5C 712.72,751.278 708.386,743.278 703.5,735.5C 710.342,731.578 717.342,727.912 724.5,724.5C 727.618,731.682 730.451,739.015 733,746.5C 733.388,747.428 734.055,748.095 735,748.5C 739.737,746.952 744.57,745.786 749.5,745C 754.239,738.318 760.239,736.984 767.5,741C 769.208,743.043 771.208,744.71 773.5,746C 777.919,746.862 782.253,748.029 786.5,749.5C 787.086,749.291 787.586,748.957 788,748.5C 790.025,740.398 792.358,732.398 795,724.5C 802.875,727.519 810.708,730.686 818.5,734C 813.933,742.311 809.266,750.477 804.5,758.5 Z"/>
<path style="opacity:1" fill="#d19c9c" d="M 755.5,741.5 C 759.869,740.923 763.869,741.757 767.5,744C 762.833,744.667 758.167,744.667 753.5,744C 754.381,743.292 755.047,742.458 755.5,741.5 Z"/>
<path style="opacity:1" fill="#f7f7f7" d="M 802.5,757.5 C 801.883,757.611 801.383,757.944 801,758.5C 798.751,755.629 795.918,753.629 792.5,752.5C 791.609,751.739 790.942,750.739 790.5,749.5C 792.273,742.57 794.273,735.737 796.5,729C 802.041,729.922 807.374,731.756 812.5,734.5C 813.583,735.365 813.749,736.365 813,737.5C 809.22,744.063 805.72,750.729 802.5,757.5 Z"/>
<path style="opacity:1" fill="#f6f5f5" d="M 721.5,728.5 C 723.411,728.574 724.578,729.574 725,731.5C 726.971,737.748 729.138,743.914 731.5,750C 727.34,751.912 723.34,754.079 719.5,756.5C 715.102,750.095 711.102,743.429 707.5,736.5C 712.229,733.806 716.896,731.14 721.5,728.5 Z"/>
<path style="opacity:1" fill="#f1b9ba" d="M 782.5,750.5 C 789.538,764.29 793.538,778.957 794.5,794.5C 772.549,789.928 750.549,789.594 728.5,793.5C 729.873,783.91 731.04,774.243 732,764.5C 733.235,759.709 734.735,755.042 736.5,750.5C 751.827,745.217 767.16,745.217 782.5,750.5 Z"/>
<path style="opacity:1" fill="#e39a9a" d="M 736.5,750.5 C 734.735,755.042 733.235,759.709 732,764.5C 731.04,774.243 729.873,783.91 728.5,793.5C 721.462,795.843 714.462,798.51 707.5,801.5C 706.178,801.67 705.011,801.337 704,800.5C 702.606,784.162 707.773,770.495 719.5,759.5C 724.719,755.723 730.385,752.723 736.5,750.5 Z"/>
<path style="opacity:1" fill="#e49a9a" d="M 782.5,750.5 C 784.915,751.305 787.249,752.305 789.5,753.5C 803.331,761.117 811.831,772.783 815,788.5C 816.464,792.859 816.63,797.192 815.5,801.5C 808.345,799.412 801.345,797.078 794.5,794.5C 793.538,778.957 789.538,764.29 782.5,750.5 Z"/>
<path style="opacity:1" fill="#2c1c19" d="M 789.5,753.5 C 790.561,752.96 791.561,752.626 792.5,752.5C 795.918,753.629 798.751,755.629 801,758.5C 801.383,757.944 801.883,757.611 802.5,757.5C 803.167,757.833 803.833,758.167 804.5,758.5C 804.196,759.15 803.863,759.817 803.5,760.5C 813.474,772.428 818.474,786.094 818.5,801.5C 817.335,802.584 816.002,803.417 814.5,804C 820.178,822.322 813.845,828.655 795.5,823C 788.427,818.268 781.094,813.935 773.5,810C 764.809,806.774 756.143,806.774 747.5,810C 740.446,814.194 733.112,817.861 725.5,821C 719.117,822.842 712.783,822.842 706.5,821C 705.667,820.167 704.833,819.333 704,818.5C 703.291,814.132 703.458,809.799 704.5,805.5C 700.835,801.928 699.668,797.595 701,792.5C 702.358,782.423 705.692,773.089 711,764.5C 712.704,762.627 714.537,760.96 716.5,759.5C 717.5,759.5 718.5,759.5 719.5,759.5C 707.773,770.495 702.606,784.162 704,800.5C 705.011,801.337 706.178,801.67 707.5,801.5C 707.5,802.5 707.5,803.5 707.5,804.5C 705.65,808.645 705.15,812.979 706,817.5C 707.171,818.893 708.671,819.727 710.5,820C 714.888,820.577 719.221,820.244 723.5,819C 732.803,814.683 742.136,810.35 751.5,806C 759.348,804.912 767.015,805.579 774.5,808C 782.995,812.413 791.328,817.08 799.5,822C 812.868,824.123 817.535,818.623 813.5,805.5C 813.586,804.504 813.252,803.671 812.5,803C 813.737,802.768 814.737,802.268 815.5,801.5C 816.63,797.192 816.464,792.859 815,788.5C 811.831,772.783 803.331,761.117 789.5,753.5 Z"/>
<path style="opacity:1" fill="#371b19" d="M 794.5,794.5 C 801.345,797.078 808.345,799.412 815.5,801.5C 814.737,802.268 813.737,802.768 812.5,803C 813.252,803.671 813.586,804.504 813.5,805.5C 796.566,796.532 778.399,792.532 759,793.5C 740.804,792.724 723.637,796.39 707.5,804.5C 707.5,803.5 707.5,802.5 707.5,801.5C 714.462,798.51 721.462,795.843 728.5,793.5C 750.549,789.594 772.549,789.928 794.5,794.5 Z"/>
<path style="opacity:1" fill="#e39a9a" d="M 813.5,805.5 C 817.535,818.623 812.868,824.123 799.5,822C 791.328,817.08 782.995,812.413 774.5,808C 767.015,805.579 759.348,804.912 751.5,806C 742.136,810.35 732.803,814.683 723.5,819C 719.221,820.244 714.888,820.577 710.5,820C 708.671,819.727 707.171,818.893 706,817.5C 705.15,812.979 705.65,808.645 707.5,804.5C 723.637,796.39 740.804,792.724 759,793.5C 778.399,792.532 796.566,796.532 813.5,805.5 Z"/>
</g>
</svg>